<svg width="14" height="11" viewBox="0 0 14 11" fill="none" xmlns="http://www.w3.org/2000/svg">
<g clip-path="url(#clip0)">
<path d="M7.93765 5.04068L2.98444 0.0874679C2.86781 -0.029156 2.68078 -0.029156 2.56415 0.0874679C2.44753 0.204092 2.44753 0.39113 2.56415 0.507754L7.30612 5.24972L2.56415 9.9917C2.44753 10.1083 2.44753 10.2954 2.56415 10.412C2.62136 10.4692 2.69838 10.5 2.7732 10.5C2.84801 10.5 2.92503 10.4714 2.98224 10.412L7.93545 5.45877C8.05207 5.34434 8.05207 5.15511 7.93765 5.04068Z" fill="#27282E"/>
</g>
<g clip-path="url(#clip1)">
<path d="M11.4377 5.04068L6.48444 0.0874679C6.36781 -0.029156 6.18078 -0.029156 6.06415 0.0874679C5.94753 0.204092 5.94753 0.39113 6.06415 0.507754L10.8061 5.24972L6.06415 9.9917C5.94753 10.1083 5.94753 10.2954 6.06415 10.412C6.12136 10.4692 6.19838 10.5 6.2732 10.5C6.34801 10.5 6.42503 10.4714 6.48224 10.412L11.4355 5.45877C11.5521 5.34434 11.5521 5.15511 11.4377 5.04068Z" fill="#27282E"/>
</g>
<defs>
<clipPath id="clip0">
<rect width="10.5" height="10.5" fill="white"/>
</clipPath>
<clipPath id="clip1">
<rect width="10.5" height="10.5" fill="white" transform="translate(3.5)"/>
</clipPath>
</defs>
</svg>
