<svg width="16" height="14" viewBox="0 0 16 14" fill="none" xmlns="http://www.w3.org/2000/svg">
<path d="M14.5712 13.2858C14.9309 13.2858 15.2425 13.167 15.5075 12.9325L10.9744 8.39931C10.8656 8.47719 10.7602 8.55292 10.6606 8.62493C10.3214 8.87487 10.0461 9.0699 9.83467 9.20966C9.62328 9.34973 9.34203 9.4925 8.99094 9.63827C8.63963 9.78421 8.31233 9.85695 8.00871 9.85695H7.99982H7.99093C7.68729 9.85695 7.35999 9.78424 7.0087 9.63827C6.65741 9.4925 6.37616 9.34973 6.16498 9.20966C5.95359 9.0699 5.67841 8.8749 5.339 8.62493C5.24442 8.55559 5.13952 8.47951 5.02611 8.39809L0.492188 12.9325C0.757085 13.167 1.06892 13.2858 1.42855 13.2858H14.5712Z" fill="white"/>
<path d="M0.901882 5.54472C0.562678 5.31858 0.261876 5.05958 0 4.76784V11.6648L3.99542 7.66936C3.19611 7.11133 2.16624 6.40393 0.901882 5.54472Z" fill="white"/>
<path d="M15.1073 5.54472C13.8912 6.36785 12.8576 7.07647 12.0063 7.67096L16.0002 11.665V4.76784C15.7441 5.05371 15.4465 5.31253 15.1073 5.54472Z" fill="white"/>
<path d="M14.5716 0.714279H1.42897C0.970462 0.714279 0.617953 0.86911 0.371008 1.17845C0.123859 1.48794 0.000488281 1.87499 0.000488281 2.33916C0.000488281 2.71409 0.164208 3.12034 0.491503 3.55802C0.818797 3.99553 1.16707 4.33918 1.53613 4.58914C1.73846 4.73209 2.3486 5.15627 3.36656 5.86151C3.91608 6.24232 4.39397 6.57423 4.80463 6.86065C5.15467 7.10455 5.45655 7.31576 5.70579 7.49104C5.7344 7.51112 5.7794 7.5433 5.83912 7.586C5.90347 7.63222 5.98489 7.69087 6.08534 7.76341C6.27878 7.90331 6.43948 8.01639 6.56747 8.10278C6.69528 8.1892 6.85014 8.28573 7.03182 8.39292C7.21334 8.49997 7.38456 8.58046 7.54526 8.634C7.70598 8.68751 7.85477 8.71435 7.99165 8.71435H8.00054H8.00943C8.14628 8.71435 8.2951 8.68751 8.45585 8.634C8.61652 8.58046 8.78759 8.50014 8.96926 8.39292C9.15076 8.28573 9.30542 8.189 9.43364 8.10278C9.56163 8.01639 9.72233 7.90333 9.9158 7.76341C10.016 7.69087 10.0975 7.63219 10.1618 7.58615C10.2216 7.54327 10.2665 7.51129 10.2953 7.49104C10.4895 7.35594 10.7921 7.14559 11.1989 6.86312C11.9391 6.34881 13.0292 5.59182 14.4739 4.58914C14.9084 4.28567 15.2714 3.91945 15.5631 3.49101C15.8543 3.06256 16.0003 2.61315 16.0003 2.1429C16.0003 1.75002 15.8588 1.41384 15.5763 1.13383C15.2935 0.854179 14.9585 0.714279 14.5716 0.714279Z" fill="white"/>
</svg>
