<svg width="16" height="14" viewBox="0 0 16 14" fill="none" xmlns="http://www.w3.org/2000/svg">
<path d="M14.5712 13.2858C14.9309 13.2858 15.2425 13.167 15.5075 12.9326L10.9744 8.39932C10.8656 8.4772 10.7602 8.55293 10.6606 8.62495C10.3214 8.87488 10.0461 9.06992 9.83467 9.20967C9.62328 9.34975 9.34203 9.49252 8.99094 9.63829C8.63963 9.78423 8.31233 9.85697 8.00871 9.85697H7.99982H7.99093C7.68729 9.85697 7.35999 9.78426 7.0087 9.63829C6.65741 9.49252 6.37616 9.34975 6.16498 9.20967C5.95359 9.06992 5.67841 8.87491 5.339 8.62495C5.24442 8.55561 5.13952 8.47953 5.02611 8.3981L0.492188 12.9326C0.757085 13.167 1.06892 13.2858 1.42855 13.2858H14.5712Z" fill="#E33741"/>
<path d="M0.901882 5.54473C0.562678 5.31858 0.261876 5.05958 0 4.76785V11.6648L3.99542 7.66937C3.19611 7.11134 2.16624 6.40394 0.901882 5.54473Z" fill="#E33741"/>
<path d="M15.1073 5.54473C13.8912 6.36786 12.8576 7.07648 12.0063 7.67097L16.0002 11.665V4.76785C15.7441 5.05372 15.4465 5.31254 15.1073 5.54473Z" fill="#E33741"/>
<path d="M14.5716 0.714287H1.42897C0.970462 0.714287 0.617953 0.869117 0.371008 1.17846C0.123859 1.48795 0.000488281 1.87499 0.000488281 2.33917C0.000488281 2.7141 0.164208 3.12035 0.491503 3.55803C0.818797 3.99554 1.16707 4.33918 1.53613 4.58915C1.73846 4.7321 2.3486 5.15627 3.36657 5.86152C3.91608 6.24232 4.39397 6.57424 4.80463 6.86066C5.15467 7.10455 5.45655 7.31577 5.70579 7.49105C5.7344 7.51112 5.7794 7.54331 5.83913 7.58601C5.90347 7.63223 5.98489 7.69088 6.08534 7.76341C6.27878 7.90331 6.43948 8.0164 6.56747 8.10279C6.69529 8.18921 6.85015 8.28574 7.03182 8.39293C7.21334 8.49998 7.38456 8.58047 7.54526 8.63401C7.70599 8.68752 7.85477 8.71436 7.99165 8.71436H8.00054H8.00943C8.14628 8.71436 8.2951 8.68752 8.45586 8.63401C8.61652 8.58047 8.78759 8.50015 8.96927 8.39293C9.15076 8.28574 9.30542 8.18901 9.43364 8.10279C9.56163 8.0164 9.72233 7.90334 9.9158 7.76341C10.016 7.69088 10.0975 7.6322 10.1618 7.58616C10.2216 7.54328 10.2665 7.5113 10.2953 7.49105C10.4895 7.35594 10.7921 7.1456 11.1989 6.86313C11.9391 6.34882 13.0292 5.59183 14.4739 4.58915C14.9084 4.28568 15.2714 3.91946 15.5631 3.49101C15.8543 3.06257 16.0003 2.61316 16.0003 2.14291C16.0003 1.75003 15.8588 1.41384 15.5763 1.13384C15.2935 0.854186 14.9586 0.714287 14.5716 0.714287Z" fill="#E33741"/>
</svg>
