<svg width="20" height="16" viewBox="0 0 20 16" fill="none" xmlns="http://www.w3.org/2000/svg">
<path d="M18.2142 15.8572C18.6637 15.8572 19.0533 15.7087 19.3844 15.4156L13.7181 9.74908C13.5822 9.84643 13.4504 9.9411 13.3259 10.0311C12.9019 10.3435 12.5577 10.5873 12.2935 10.762C12.0292 10.9371 11.6777 11.1156 11.2388 11.2978C10.7997 11.4802 10.3905 11.5711 10.011 11.5711H9.9999H9.98879C9.60923 11.5711 9.20011 11.4803 8.761 11.2978C8.32189 11.1156 7.97032 10.9371 7.70634 10.762C7.44211 10.5873 7.09813 10.3436 6.67387 10.0311C6.55564 9.94444 6.42452 9.84934 6.28276 9.74756L0.615356 15.4156C0.946478 15.7087 1.33628 15.8572 1.78581 15.8572H18.2142Z" fill="#E33741"/>
<path d="M1.12735 6.18082C0.703347 5.89814 0.327345 5.57439 0 5.20972V13.8309L4.99427 8.83662C3.99513 8.13908 2.7078 7.25483 1.12735 6.18082Z" fill="#E33741"/>
<path d="M18.884 6.18082C17.3638 7.20974 16.0718 8.09551 15.0078 8.83862L20 13.8311V5.20972C19.6799 5.56705 19.308 5.89059 18.884 6.18082Z" fill="#E33741"/>
<path d="M18.2143 0.142822H1.78591C1.21277 0.142822 0.772136 0.336361 0.463454 0.723038C0.154519 1.1099 0.000305176 1.59371 0.000305176 2.17392C0.000305176 2.64259 0.204955 3.1504 0.614073 3.6975C1.02319 4.24438 1.45853 4.67394 1.91986 4.9864C2.17277 5.16509 2.93545 5.6953 4.2079 6.57687C4.8948 7.05287 5.49216 7.46776 6.00549 7.82579C6.44304 8.13066 6.82038 8.39467 7.13193 8.61378C7.1677 8.63887 7.22395 8.6791 7.2986 8.73248C7.37903 8.79025 7.48081 8.86356 7.60638 8.95423C7.84817 9.1291 8.04904 9.27046 8.20903 9.37845C8.3688 9.48648 8.56238 9.60714 8.78947 9.74113C9.01638 9.87493 9.23039 9.97555 9.43127 10.0425C9.63218 10.1094 9.81816 10.1429 9.98926 10.1429H10.0004H10.0115C10.1825 10.1429 10.3686 10.1094 10.5695 10.0425C10.7704 9.97555 10.9842 9.87515 11.2113 9.74113C11.4381 9.60714 11.6315 9.48622 11.7917 9.37845C11.9517 9.27046 12.1526 9.12914 12.3944 8.95423C12.5198 8.86356 12.6215 8.79021 12.702 8.73266C12.7767 8.67906 12.8329 8.63908 12.8688 8.61378C13.1116 8.44489 13.4898 8.18196 13.9983 7.82887C14.9236 7.18599 16.2862 6.23975 18.0921 4.9864C18.6352 4.60706 19.0889 4.14928 19.4536 3.61373C19.8176 3.07818 20.0001 2.51641 20.0001 1.9286C20.0001 1.4375 19.8232 1.01727 19.47 0.667264C19.1165 0.317697 18.6979 0.142822 18.2143 0.142822Z" fill="#E33741"/>
</svg>
