<svg width="15" height="21" viewBox="0 0 15 21" fill="none" xmlns="http://www.w3.org/2000/svg">
<path d="M7.49969 7.62939e-06C3.36456 7.62939e-06 0 3.36457 0 7.50011C0 8.57882 0.220787 9.60875 0.655899 10.5615C2.53103 14.6648 6.12618 18.9969 7.18362 20.2268C7.26285 20.3187 7.37835 20.3717 7.4999 20.3717C7.62144 20.3717 7.73695 20.3187 7.81617 20.2268C8.8732 18.9971 12.4683 14.6652 14.3441 10.5615C14.7794 9.60875 15 8.57882 15 7.50011C14.9996 3.36457 11.635 7.62939e-06 7.49969 7.62939e-06ZM7.49969 11.3957C5.35165 11.3957 3.6039 9.64794 3.6039 7.4999C3.6039 5.35166 5.35165 3.60391 7.49969 3.60391C9.64773 3.60391 11.3955 5.35166 11.3955 7.4999C11.3957 9.64794 9.64794 11.3957 7.49969 11.3957Z" fill="white"/>
</svg>
