<svg width="15" height="15" viewBox="0 0 15 15" fill="none" xmlns="http://www.w3.org/2000/svg">
<path d="M11.6223 0.0315461C11.4944 0.0739722 11.3061 0.343898 11.0577 0.841139C10.9795 0.975842 10.8731 1.16778 10.7381 1.41614C10.6031 1.66473 10.4788 1.89036 10.3651 2.09264C10.2515 2.29533 10.1414 2.48522 10.035 2.66264C10.0137 2.691 9.95169 2.77977 9.84848 2.92891C9.74557 3.0782 9.66919 3.2041 9.61938 3.30727C9.56986 3.41022 9.54494 3.51149 9.54494 3.61093C9.54494 3.75295 9.6462 3.93033 9.84848 4.14332C10.051 4.35631 10.271 4.55168 10.5092 4.72914C10.7472 4.90665 10.9672 5.09489 11.1696 5.29355C11.3721 5.49251 11.4733 5.65598 11.4733 5.78366C11.4733 5.84777 11.4554 5.92769 11.4201 6.02348C11.3846 6.11922 11.3542 6.19206 11.3297 6.24206C11.3047 6.29161 11.2551 6.37665 11.1803 6.49747C11.1057 6.61852 11.0649 6.68583 11.0577 6.70001C10.5179 7.67297 9.89994 8.50741 9.20415 9.20349C8.50795 9.89936 7.67358 10.5173 6.70052 11.0571C6.6863 11.0642 6.6188 11.1051 6.49813 11.1796C6.37735 11.2543 6.29223 11.304 6.24238 11.3288C6.19272 11.3537 6.11988 11.3839 6.02402 11.4193C5.92816 11.4548 5.84831 11.4726 5.78432 11.4726C5.65656 11.4726 5.49312 11.3713 5.29424 11.1689C5.09547 10.9665 4.90719 10.7463 4.72976 10.5085C4.55234 10.2704 4.35696 10.0504 4.14398 9.84798C3.93088 9.64559 3.75341 9.54439 3.6114 9.54439C3.51203 9.54439 3.41073 9.56924 3.30778 9.61891C3.20461 9.66861 3.07871 9.74495 2.92949 9.84798C2.78035 9.95104 2.69166 10.0132 2.66311 10.0345C2.48568 10.1409 2.29572 10.2509 2.09329 10.3647C1.8909 10.4784 1.66531 10.6026 1.41676 10.7376C1.16833 10.8725 0.976497 10.979 0.841571 11.0572C0.344517 11.3056 0.0745152 11.4938 0.0320523 11.6216C0.0107462 11.6714 -1.35619e-07 11.746 -1.31477e-07 11.8453C-1.23478e-07 12.0372 0.0354478 12.2875 0.106568 12.5964C0.177575 12.9055 0.252053 13.1486 0.3303 13.3262C0.479368 13.6813 0.912579 14.0577 1.62978 14.4555C2.29725 14.8177 2.95789 14.9987 3.61121 14.9987C3.80282 14.9987 3.98924 14.9863 4.17051 14.9615C4.35159 14.9366 4.55581 14.8922 4.78312 14.8282C5.01036 14.7643 5.17917 14.7128 5.28909 14.6739C5.39909 14.6349 5.59615 14.5621 5.88033 14.4555C6.16443 14.3491 6.33835 14.2851 6.40227 14.2638C7.09832 14.0152 7.7197 13.7205 8.26661 13.3796C9.17564 12.8188 10.1151 12.0535 11.0846 11.0841C12.054 10.1146 12.8193 9.17536 13.3803 8.26625C13.7212 7.71942 14.0159 7.09781 14.2646 6.40188C14.2858 6.33792 14.3496 6.164 14.4564 5.88001C14.5629 5.5959 14.6357 5.39877 14.6748 5.28877C14.7139 5.17874 14.7654 5.00989 14.8294 4.78284C14.8934 4.5553 14.9378 4.35127 14.9629 4.17019C14.9874 3.98899 15 3.80254 15 3.61089C15 2.95761 14.8188 2.29693 14.4567 1.62935C14.0591 0.912221 13.6826 0.479122 13.3272 0.32998C13.1498 0.251546 12.9066 0.177255 12.5976 0.106247C12.2887 0.0350155 12.0384 -0.000357226 11.8466 -0.000357217C11.7468 -0.000581326 11.6724 0.0101284 11.6223 0.0315461Z" fill="white"/>
</svg>
