<svg width="34" height="34" viewBox="0 0 34 34" fill="none" xmlns="http://www.w3.org/2000/svg">
<g clip-path="url(#clip0)">
<path d="M26.9236 22.5563C28.0899 23.4032 28.6409 25.9024 28.7556 26.7959L29.6253 33.3565L30.5341 33.2373L29.6651 26.669C29.6467 26.5238 29.1866 23.0638 27.4662 21.8226C26.8899 21.4374 26.2724 21.1172 25.6243 20.8688C25.5853 20.839 25.5432 20.8153 25.4966 20.7992L25.1183 20.6655C24.5466 20.4446 23.9497 20.2383 23.3765 20.0594L23.0226 19.9356C22.9875 19.9226 22.9515 19.915 22.9141 19.9111C21.9557 19.6077 21.1142 19.3838 20.6633 19.2661V18.2633C22.0321 17.285 22.8453 15.706 22.8438 14.0238V13.2519C22.9966 13.3077 23.1579 13.3367 23.3192 13.339C24.0842 13.339 24.7041 12.7192 24.7041 11.9541V10.719C24.7041 10.3835 24.5802 10.0602 24.3578 9.81107C24.5053 9.57567 24.5802 9.30205 24.5741 9.02538V8.49802C24.5955 8.11358 24.474 7.7345 24.234 7.4326C24.1094 7.30267 23.9497 7.20943 23.7739 7.16586C23.6654 5.91472 23.0715 2.24155 19.9036 0.806221H19.876C19.0506 0.452355 18.1648 0.262812 17.2683 0.24829H17.0046C16.1471 0.230712 15.2934 0.365226 14.4817 0.644956H14.4603C10.9522 1.93507 10.3202 5.85511 10.2208 7.15364C10.0442 7.1972 9.88374 7.28968 9.75993 7.42037C9.50848 7.71845 9.37702 8.0983 9.39307 8.48656V9.0292C9.38619 9.30587 9.46109 9.57872 9.60783 9.8126C9.38695 10.064 9.26238 10.3873 9.26238 10.7229V11.9602C9.26238 12.7253 9.88298 13.3444 10.6473 13.3444C10.8101 13.3444 10.9698 13.3146 11.1219 13.2572V14.0322C11.1249 15.6953 11.9206 17.2568 13.2642 18.2366V19.2661C11.6439 19.6887 10.0473 20.2016 8.48433 20.8046H8.46369C7.77125 21.0637 7.1109 21.4023 6.49412 21.8104C4.77371 23.0638 4.31437 26.5199 4.29527 26.6575L3.42627 33.2296L4.33501 33.3473L5.204 26.7752C5.32018 25.8841 5.8697 23.3879 7.02148 22.5342C7.38758 22.2904 7.77584 22.0825 8.18167 21.9128V25.8497C7.51216 26.0958 6.66762 26.7844 6.66762 28.2381V33.2992C6.66762 33.5491 6.87015 33.7532 7.1216 33.7532H26.8601C27.1116 33.7532 27.3133 33.5491 27.3133 33.2992V28.2465C27.3133 26.7928 26.4635 26.1049 25.7993 25.8596V21.9227C26.1944 22.097 26.5697 22.3095 26.9236 22.5563ZM23.8037 10.719V11.958C23.7839 12.2193 23.5538 12.415 23.2924 12.3944C23.0601 12.3753 22.8751 12.1903 22.856 11.958V10.719C22.8361 10.4569 23.0303 10.2284 23.2924 10.2062C23.5538 10.1856 23.7839 10.3812 23.8037 10.6426C23.8068 10.6678 23.8068 10.6938 23.8037 10.719ZM17.6252 1.17843C18.1778 1.22047 18.7227 1.34046 19.2432 1.53153V3.83127C18.8687 4.3701 18.2779 4.71632 17.6252 4.77899V1.17843ZM15.0992 1.40542C15.6251 1.25486 16.1685 1.17155 16.7172 1.15703V4.79122C16.0645 4.72855 15.4722 4.38156 15.0992 3.84274V1.40542ZM11.1104 11.9541C11.0898 12.2155 10.8597 12.4119 10.5991 12.3905C10.3668 12.373 10.1818 12.188 10.1627 11.9541V10.719C10.1413 10.4569 10.337 10.2284 10.5991 10.2062C10.8597 10.1856 11.0898 10.3812 11.1104 10.6426C11.1127 10.6678 11.1127 10.6938 11.1104 10.719V11.9541ZM10.635 9.33186C10.5487 9.33186 10.4646 9.34027 10.3813 9.35555C10.311 9.26154 10.2774 9.14308 10.2896 9.02538V8.47509C10.2842 8.33064 10.3202 8.18848 10.3958 8.06543C10.4134 8.05091 10.4363 8.04556 10.46 8.04862H10.635C10.8857 8.04862 11.0898 7.84455 11.0898 7.5931C11.0898 7.38139 11.1494 3.35207 14.1882 1.77075V3.9528C14.1882 4.02005 14.2035 4.08578 14.2325 4.14616C14.2639 4.2096 15.0045 5.72136 17.1674 5.72136C19.3296 5.72136 20.0732 4.2073 20.103 4.14616C20.1306 4.08578 20.1466 4.02005 20.1443 3.9528V1.98934C22.8079 3.68912 22.8713 7.3898 22.8713 7.5931C22.8713 7.84455 23.0754 8.04862 23.3253 8.04862H23.5011C23.5462 8.04862 23.5561 8.04862 23.5645 8.06543C23.6417 8.19154 23.6776 8.33675 23.6707 8.48503V9.02538C23.683 9.14461 23.6478 9.26384 23.5737 9.35555C23.1281 9.26766 22.6672 9.40829 22.3478 9.73235H11.6187C11.3581 9.47325 11.0042 9.33109 10.6381 9.33492L10.635 9.33186ZM12.0192 14.0322V10.6411H21.9534V14.0322C21.9496 16.4138 20.0182 18.3413 17.6374 18.339H16.329C13.9505 18.3382 12.0222 16.4115 12.0192 14.0322ZM19.766 18.7907V19.4625L16.9802 23.0249L14.163 19.4625V18.7716C14.8424 19.0872 15.5815 19.25 16.329 19.2508H17.6374C18.3719 19.2508 19.098 19.0934 19.766 18.7907ZM11.5377 20.7022C12.4036 20.4377 13.1495 20.236 13.5363 20.1351L16.9863 24.4969L20.3973 20.1351C20.7894 20.2383 21.5475 20.4377 22.4326 20.7136V25.9169H11.5277L11.5377 20.7022ZM26.4061 28.2465V32.8528H7.57559V28.2465C7.57559 26.8753 8.59057 26.6782 8.6991 26.659C8.92456 26.6277 9.09041 26.4351 9.09041 26.2089V21.5437C9.58949 21.3495 10.1199 21.1653 10.635 20.9987V26.3717C10.635 26.6231 10.8383 26.8272 11.0898 26.8272H22.9011C23.1518 26.8272 23.3559 26.6231 23.3559 26.3717V21.0079L24.8852 21.5437V26.2089C24.8852 26.4359 25.0541 26.63 25.2788 26.659C25.3254 26.6652 26.4061 26.8272 26.4061 28.2465Z" fill="white"/>
<path d="M8.62721 27.674H11.0798V28.4887H8.62721V27.674Z" fill="white"/>
<path d="M22.8865 27.674H25.3407V28.4887H22.8865V27.674Z" fill="white"/>
</g>
<defs>
<clipPath id="clip0">
<rect width="33.5065" height="33.5065" fill="white" transform="translate(0.24675 0.246765)"/>
</clipPath>
</defs>
</svg>
