<svg width="34" height="34" viewBox="0 0 34 34" fill="none" xmlns="http://www.w3.org/2000/svg">
<path d="M2.3409 31.6591H1.29382V32.7062H2.3409V31.6591Z" fill="white"/>
<path d="M18.5706 29.0414C18.5706 29.352 18.6627 29.6557 18.8353 29.914C19.0079 30.1723 19.2532 30.3736 19.5402 30.4925C19.8272 30.6113 20.143 30.6425 20.4476 30.5818C20.7523 30.5212 21.0322 30.3717 21.2518 30.152C21.4715 29.9323 21.6211 29.6525 21.6817 29.3478C21.7423 29.0432 21.7112 28.7274 21.5923 28.4404C21.4734 28.1534 21.2721 27.9081 21.0138 27.7355C20.7555 27.5629 20.4519 27.4708 20.1412 27.4708C19.7247 27.4708 19.3252 27.6363 19.0306 27.9308C18.7361 28.2254 18.5706 28.6249 18.5706 29.0414ZM20.6648 29.0414C20.6648 29.145 20.6341 29.2462 20.5765 29.3323C20.519 29.4184 20.4373 29.4855 20.3416 29.5251C20.2459 29.5647 20.1407 29.5751 20.0391 29.5549C19.9375 29.5347 19.8443 29.4848 19.771 29.4116C19.6978 29.3384 19.648 29.2451 19.6278 29.1435C19.6076 29.042 19.6179 28.9367 19.6576 28.8411C19.6972 28.7454 19.7643 28.6636 19.8504 28.6061C19.9365 28.5486 20.0377 28.5179 20.1412 28.5179C20.2801 28.5179 20.4133 28.573 20.5114 28.6712C20.6096 28.7694 20.6648 28.9026 20.6648 29.0414Z" fill="white"/>
<path d="M15.9529 27.4708C15.6422 27.4708 15.3386 27.5629 15.0803 27.7355C14.822 27.9081 14.6207 28.1534 14.5018 28.4404C14.3829 28.7274 14.3518 29.0432 14.4124 29.3478C14.473 29.6525 14.6226 29.9323 14.8423 30.152C15.0619 30.3717 15.3418 30.5212 15.6465 30.5818C15.9511 30.6425 16.2669 30.6113 16.5539 30.4925C16.8409 30.3736 17.0862 30.1723 17.2588 29.914C17.4314 29.6557 17.5235 29.352 17.5235 29.0414C17.5235 28.6249 17.358 28.2254 17.0635 27.9308C16.7689 27.6363 16.3694 27.4708 15.9529 27.4708ZM15.9529 29.5649C15.8493 29.5649 15.7481 29.5342 15.662 29.4767C15.5759 29.4192 15.5088 29.3374 15.4692 29.2418C15.4296 29.1461 15.4192 29.0408 15.4394 28.9393C15.4596 28.8377 15.5095 28.7444 15.5827 28.6712C15.6559 28.598 15.7492 28.5481 15.8507 28.5279C15.9523 28.5077 16.0576 28.5181 16.1532 28.5577C16.2489 28.5974 16.3307 28.6645 16.3882 28.7505C16.4457 28.8366 16.4764 28.9379 16.4764 29.0414C16.4764 29.1803 16.4213 29.3134 16.3231 29.4116C16.2249 29.5098 16.0917 29.5649 15.9529 29.5649Z" fill="white"/>
<path d="M11.7646 27.4708C11.4539 27.4708 11.1503 27.5629 10.892 27.7355C10.6337 27.9081 10.4324 28.1534 10.3135 28.4404C10.1947 28.7274 10.1635 29.0432 10.2241 29.3478C10.2848 29.6525 10.4343 29.9323 10.654 30.152C10.8736 30.3717 11.1535 30.5212 11.4582 30.5818C11.7628 30.6425 12.0786 30.6113 12.3656 30.4925C12.6526 30.3736 12.8979 30.1723 13.0705 29.914C13.2431 29.6557 13.3352 29.352 13.3352 29.0414C13.3352 28.6249 13.1697 28.2254 12.8752 27.9308C12.5806 27.6363 12.1811 27.4708 11.7646 27.4708ZM11.7646 29.5649C11.661 29.5649 11.5598 29.5342 11.4737 29.4767C11.3876 29.4192 11.3205 29.3374 11.2809 29.2418C11.2413 29.1461 11.2309 29.0408 11.2511 28.9393C11.2713 28.8377 11.3212 28.7444 11.3944 28.6712C11.4676 28.598 11.5609 28.5481 11.6624 28.5279C11.764 28.5077 11.8693 28.5181 11.9649 28.5577C12.0606 28.5974 12.1424 28.6645 12.1999 28.7505C12.2574 28.8366 12.2881 28.9379 12.2881 29.0414C12.2881 29.1803 12.233 29.3134 12.1348 29.4116C12.0366 29.5098 11.9034 29.5649 11.7646 29.5649Z" fill="white"/>
<path d="M7.57629 27.4708C7.26565 27.4708 6.96199 27.5629 6.70371 27.7355C6.44542 27.9081 6.24411 28.1534 6.12523 28.4404C6.00636 28.7274 5.97525 29.0432 6.03586 29.3478C6.09646 29.6525 6.24605 29.9323 6.4657 30.152C6.68535 30.3717 6.96521 30.5212 7.26988 30.5818C7.57455 30.6425 7.89035 30.6113 8.17734 30.4925C8.46433 30.3736 8.70963 30.1723 8.88221 29.914C9.05479 29.6557 9.14691 29.352 9.14691 29.0414C9.14691 28.6249 8.98143 28.2254 8.68689 27.9308C8.39234 27.6363 7.99285 27.4708 7.57629 27.4708ZM7.57629 29.5649C7.47275 29.5649 7.37153 29.5342 7.28543 29.4767C7.19933 29.4192 7.13223 29.3374 7.09261 29.2418C7.05298 29.1461 7.04261 29.0408 7.06281 28.9393C7.08301 28.8377 7.13288 28.7444 7.2061 28.6712C7.27931 28.598 7.3726 28.5481 7.47416 28.5279C7.57571 28.5077 7.68098 28.5181 7.77664 28.5577C7.87231 28.5974 7.95407 28.6645 8.0116 28.7505C8.06913 28.8366 8.09983 28.9379 8.09983 29.0414C8.09983 29.1803 8.04467 29.3134 7.94649 29.4116C7.84831 29.5098 7.71514 29.5649 7.57629 29.5649Z" fill="white"/>
<path d="M30.8534 11.7892L25.352 6.28789C25.2958 5.77832 25.0535 5.30741 24.6717 4.96536C24.2898 4.62331 23.7952 4.43417 23.2825 4.43417C22.7698 4.43417 22.2752 4.62331 21.8933 4.96536C21.5114 5.30741 21.2692 5.77832 21.2129 6.28789L14.1656 13.3352H10.194C10.0552 13.3352 9.922 13.3904 9.82382 13.4886C9.72563 13.5868 9.67048 13.7199 9.67048 13.8588V18.5706H9.14694C9.00809 18.5706 8.87492 18.6258 8.77674 18.724C8.67856 18.8222 8.6234 18.9553 8.6234 19.0942V23.2825H7.57632C6.68168 23.2791 5.79873 23.4857 4.99853 23.8858C4.19834 24.2859 3.50324 24.8683 2.96918 25.5861L3.80684 26.2143C4.19098 25.6983 4.67759 25.2671 5.23614 24.948C5.7947 24.6288 6.41317 24.4284 7.05278 24.3594V25.4185C6.37631 25.5151 5.7404 25.7992 5.21713 26.2386C4.69386 26.6781 4.30414 27.2553 4.09215 27.9049C3.88015 28.5546 3.85436 29.2506 4.01768 29.9141C4.181 30.5776 4.52691 31.1821 5.01621 31.6591H3.38801V32.7062H32.7062V31.6591H22.7014C23.1907 31.1821 23.5366 30.5776 23.6999 29.9141C23.8632 29.2506 23.8374 28.5546 23.6254 27.9049C23.4134 27.2553 23.0237 26.6781 22.5004 26.2386C21.9772 25.7992 21.3413 25.5151 20.6648 25.4185V24.3594C21.3044 24.4283 21.9229 24.6286 22.4815 24.9478C23.0401 25.267 23.5267 25.6982 23.9107 26.2143L24.7484 25.5861C24.2144 24.8683 23.5193 24.2859 22.7191 23.8858C21.9189 23.4857 21.0359 23.279 20.1413 23.2825H19.6177V21.1883C19.6177 21.0495 19.5626 20.9163 19.4644 20.8181C19.3662 20.72 19.233 20.6648 19.0942 20.6648H18.0471V17C18.0471 16.2097 17.7898 15.4408 17.3141 14.8095L23.2825 8.84014L28.5425 14.1001C28.5839 14.4671 28.7227 14.8164 28.9446 15.1116L27.0651 20.7501L25.2494 21.204L25.5039 22.2197L27.598 21.6962L31.0665 20.9266C31.5328 20.8252 31.9502 20.5667 32.2487 20.1943C32.5472 19.8219 32.7087 19.3583 32.7062 18.8811V16.4765C32.7062 16.4203 32.6972 16.3644 32.6795 16.311L32.2795 15.1116C32.503 14.8193 32.6448 14.4727 32.6902 14.1075C32.7356 13.7423 32.683 13.3716 32.5379 13.0334C32.3927 12.6953 32.1602 12.4018 31.8642 12.1832C31.5681 11.9645 31.2193 11.8286 30.8534 11.7892ZM31.6591 13.8588C31.6591 14.0659 31.5977 14.2683 31.4826 14.4405C31.3676 14.6127 31.2041 14.7469 31.0127 14.8262C30.8214 14.9054 30.6109 14.9261 30.4078 14.8857C30.2046 14.8453 30.0181 14.7456 29.8716 14.5992C29.7252 14.4527 29.6255 14.2662 29.5851 14.0631C29.5447 13.8599 29.5654 13.6494 29.6447 13.4581C29.7239 13.2668 29.8581 13.1032 30.0303 12.9882C30.2025 12.8731 30.4049 12.8117 30.612 12.8117C30.8897 12.8117 31.1561 12.922 31.3524 13.1184C31.5488 13.3148 31.6591 13.5811 31.6591 13.8588ZM15.4786 13.5028L21.4532 7.52815C21.6453 7.87835 21.9334 8.16642 22.2836 8.35849L16.5728 14.0682C16.2426 13.8193 15.8727 13.6281 15.4786 13.5028ZM25.1117 7.52815L29.6142 12.0306C29.264 12.2227 28.9759 12.5107 28.7838 12.8609L24.2814 8.35849C24.6316 8.16642 24.9197 7.87835 25.1117 7.52815ZM23.2825 5.48216C23.4896 5.48216 23.692 5.54357 23.8642 5.65863C24.0364 5.77368 24.1706 5.93721 24.2499 6.12854C24.3291 6.31987 24.3498 6.5304 24.3094 6.73352C24.269 6.93663 24.1693 7.1232 24.0229 7.26964C23.8764 7.41607 23.6899 7.5158 23.4868 7.5562C23.2836 7.5966 23.0731 7.57587 22.8818 7.49662C22.6905 7.41737 22.5269 7.28316 22.4119 7.11097C22.2968 6.93878 22.2354 6.73633 22.2354 6.52924C22.2354 6.25154 22.3457 5.98521 22.5421 5.78885C22.7385 5.59248 23.0048 5.48216 23.2825 5.48216ZM10.7176 14.3823H12.2882V18.5706H10.7176V14.3823ZM8.09986 25.3766V24.3296H19.6177V25.3766H8.09986ZM22.7589 29.0414C22.7581 29.7354 22.4821 30.4008 21.9913 30.8915C21.5006 31.3822 20.8353 31.6583 20.1413 31.6591H7.57632C6.88206 31.6591 6.21624 31.3833 5.72533 30.8924C5.23442 30.4015 4.95863 29.7357 4.95863 29.0414C4.95863 28.3472 5.23442 27.6813 5.72533 27.1904C6.21624 26.6995 6.88206 26.4237 7.57632 26.4237H20.1413C20.8353 26.4246 21.5006 26.7006 21.9913 27.1913C22.4821 27.6821 22.7581 28.3474 22.7589 29.0414ZM18.5706 23.2825H9.67048V19.6177H12.2882V21.1883C12.2882 21.3272 12.3433 21.4603 12.4415 21.5585C12.5397 21.6567 12.6729 21.7119 12.8117 21.7119H18.5706V23.2825ZM13.3352 20.6648V14.3823H14.3823C15.0763 14.3832 15.7417 14.6592 16.2324 15.1499C16.7231 15.6407 16.9992 16.306 17 17V20.6648H13.3352ZM31.6591 18.8811C31.6602 19.1197 31.5794 19.3514 31.4302 19.5375C31.281 19.7236 31.0723 19.8528 30.8392 19.9036L28.2598 20.4768L29.8204 15.7959C30.0714 15.8999 30.3404 15.9535 30.612 15.9535C30.8837 15.9535 31.1527 15.8999 31.4036 15.7959L31.6591 16.5613V18.8811Z" fill="white"/>
<path d="M13.4885 10.8707L12.9651 11.3942L13.7055 12.1346L14.2289 11.6111L13.4885 10.8707Z" fill="white"/>
<path d="M19.7709 4.58852L14.0121 10.3473L14.7525 11.0877L20.5113 5.32892L19.7709 4.58852Z" fill="white"/>
</svg>
