<svg width="36" height="36" viewBox="0 0 36 36" fill="none" xmlns="http://www.w3.org/2000/svg">
<g clip-path="url(#clip0)">
<path d="M10.2 20.4H11.4V21.6H10.2V20.4Z" fill="white"/>
<path d="M12.5999 20.4H13.7999V21.6H12.5999V20.4Z" fill="white"/>
<path d="M14.9999 20.4H16.1999V21.6H14.9999V20.4Z" fill="white"/>
<path d="M10.2 22.8H11.4V24H10.2V22.8Z" fill="white"/>
<path d="M12.5999 22.8H13.7999V24H12.5999V22.8Z" fill="white"/>
<path d="M14.9999 22.8H16.1999V24H14.9999V22.8Z" fill="white"/>
<path d="M17.3999 22.8H18.5999V24H17.3999V22.8Z" fill="white"/>
<path d="M19.7999 22.8H20.9999V24H19.7999V22.8Z" fill="white"/>
<path d="M10.2 25.2H11.4V26.4H10.2V25.2Z" fill="white"/>
<path d="M12.5999 25.2H13.7999V26.4H12.5999V25.2Z" fill="white"/>
<path d="M14.9999 25.2H16.1999V26.4H14.9999V25.2Z" fill="white"/>
<path d="M17.3999 25.2H18.5999V26.4H17.3999V25.2Z" fill="white"/>
<path d="M19.7999 25.2H20.9999V26.4H19.7999V25.2Z" fill="white"/>
<path d="M10.2 27.6H11.4V28.8H10.2V27.6Z" fill="white"/>
<path d="M12.5999 27.5999H13.7999V28.7999H12.5999V27.5999Z" fill="white"/>
<path d="M14.9999 27.5999H16.1999V28.7999H14.9999V27.5999Z" fill="white"/>
<path d="M17.3999 27.5999H18.5999V28.7999H17.3999V27.5999Z" fill="white"/>
<path d="M19.7999 27.5999H20.9999V28.7999H19.7999V27.5999Z" fill="white"/>
<path d="M10.1999 29.9999H11.3999V31.1999H10.1999V29.9999Z" fill="white"/>
<path d="M12.5999 29.9999H13.7999V31.1999H12.5999V29.9999Z" fill="white"/>
<path d="M14.9999 29.9999H16.1999V31.1999H14.9999V29.9999Z" fill="white"/>
<path d="M17.3999 29.9999H18.5999V31.1999H17.3999V29.9999Z" fill="white"/>
<path d="M19.7999 29.9999H20.9999V31.1999H19.7999V29.9999Z" fill="white"/>
<path d="M10.1999 32.3999H11.3999V33.5999H10.1999V32.3999Z" fill="white"/>
<path d="M12.5999 32.3999H13.7999V33.5999H12.5999V32.3999Z" fill="white"/>
<path d="M14.9999 32.3999H16.1999V33.5999H14.9999V32.3999Z" fill="white"/>
<path d="M17.3999 32.3999H18.5999V33.5999H17.3999V32.3999Z" fill="white"/>
<path d="M19.7999 32.3999H20.9999V33.5999H19.7999V32.3999Z" fill="white"/>
<path d="M35.3997 1.80072H31.1998V0.600728C31.1998 0.269383 30.9311 0.000732422 30.5998 0.000732422H24.5998C24.2685 0.000732422 23.9998 0.269383 23.9998 0.600728V1.80072H0.599996C0.26865 1.80072 0 2.06937 0 2.40072V4.8007C0 5.13234 0.26865 5.40069 0.599996 5.40069H2.39998V16.8006C2.39998 17.1323 2.66863 17.4006 2.99998 17.4006C3.33132 17.4006 3.59997 17.6693 3.59997 18.0006C3.59997 18.3322 3.33132 18.6006 2.99998 18.6006C2.66863 18.6006 2.39998 18.3322 2.39998 18.0006H1.19999C1.20175 18.4398 1.36493 18.8631 1.65907 19.1895L0.120116 21.2408L0.127733 21.2467C0.0474606 21.3475 0.0026367 21.472 0 21.6006V24.0006C0 24.1599 0.0632808 24.3123 0.17578 24.4248L1.37577 25.6248C1.48827 25.7373 1.64091 25.8005 1.79999 25.8005H4.19997C4.35905 25.8005 4.51169 25.7373 4.62419 25.6248L5.82418 24.4248C5.93668 24.3123 5.99996 24.1599 5.99996 24.0006V21.6006C5.99732 21.472 5.9525 21.3475 5.87222 21.2467L5.87984 21.2408L4.34089 19.1895C4.74166 18.7442 4.89284 18.1278 4.74372 17.5477C4.59489 16.9676 4.1654 16.5006 3.59997 16.3034V5.40069H23.9998V6.00069C23.9998 6.33233 24.2685 6.60069 24.5998 6.60069H25.7998V34.8005H23.3998V10.8007H22.1998V13.2006H18.5999V12.0006H17.3999V13.2006H13.7999V12.6006H12.5999V13.2006H8.99993V11.4007H16.7999V10.2007H8.99993V7.80068H7.79994V34.8005H6.84839L4.02419 31.9766C3.78982 31.7422 3.41013 31.7422 3.17576 31.9766L0.35156 34.8005H0V36.0005H35.9997V34.8005H35.5319C35.954 34.3396 36.104 33.691 35.9271 33.0913C35.7504 32.4919 35.2726 32.0284 34.6676 31.8702C34.9726 31.1182 34.737 30.2554 34.0919 29.7629C33.4471 29.2704 32.5524 29.2704 31.9076 29.7629C31.2625 30.2554 31.0269 31.1182 31.3319 31.8702C30.7269 32.0284 30.2491 32.4919 30.0724 33.0913C29.8955 33.691 30.0455 34.3396 30.4676 34.8005H29.3998V6.60069H30.5998C30.9311 6.60069 31.1998 6.33233 31.1998 6.00069V5.40069H35.3997C35.7311 5.40069 35.9997 5.13234 35.9997 4.8007V2.40072C35.9997 2.06937 35.7311 1.80072 35.3997 1.80072ZM3.29998 19.8006L4.19997 21.0006H1.79999L2.69998 19.8006H3.29998ZM4.79996 23.7524L3.95153 24.6006H2.04842L1.19999 23.7524V22.2006H4.79996V23.7524ZM32.8199 3.00071L31.1998 4.08088V3.00071H32.8199ZM25.1998 1.20072H27.5998V3.60071H25.1998V1.20072ZM8.99993 3.12083L10.62 4.2007H7.37983L8.99993 3.12083ZM5.39996 4.08088L3.77986 3.00071H7.02007L5.39996 4.08088ZM10.9798 3.00071H14.22L12.5999 4.08088L10.9798 3.00071ZM16.1999 3.12083L17.82 4.2007H14.5798L16.1999 3.12083ZM18.1798 3.00071H21.42L19.7999 4.08088L18.1798 3.00071ZM1.19999 3.00071H1.62011L3.42009 4.2007H1.19999V3.00071ZM21.7797 4.2007L23.5797 3.00071H23.9998V4.2007H21.7797ZM28.1998 32.8206L27.1199 31.2005L28.1998 29.5807V32.8206ZM28.1998 18.4207L27.1199 16.8006L28.1998 15.1808V18.4207ZM26.9998 18.7808L28.0797 20.4006L26.9998 22.0207V18.7808ZM26.9998 14.8207V11.5808L28.0797 13.2006L26.9998 14.8207ZM26.9998 25.9807L28.0797 27.6005L26.9998 29.2206V25.9807ZM28.1998 25.6172L27.1199 24.0006L28.1998 22.3807V25.6172ZM27.1199 9.60066L28.1998 7.98085V11.2208L27.1199 9.60066ZM26.9998 7.6208V6.60069H27.6789L26.9998 7.6208ZM22.1998 14.4006V20.4006H18.5999V14.4006H22.1998ZM17.3999 14.4006V19.5607L16.02 18.1969C15.9081 18.0864 15.7572 18.024 15.5999 18.0235H13.7999V14.4006H17.3999ZM12.5999 14.4006V15.4008H8.99993V14.4006H12.5999ZM3.59997 33.2489L5.15153 34.8005H2.04842L3.59997 33.2489ZM8.99993 34.8005V16.6008H12.5999V18.6258C12.5999 18.9574 12.8686 19.2258 13.1999 19.2258H15.3532L17.5798 21.4274C17.6917 21.5379 17.8425 21.6003 17.9999 21.6006H22.1998V34.8005H8.99993ZM26.9998 33.1807L28.0797 34.8005H26.9998V33.1807ZM34.1997 34.2005C33.8684 34.2005 33.5998 33.9321 33.5998 33.6005C33.5998 33.2691 33.8684 33.0005 34.1997 33.0005C34.5311 33.0005 34.7997 33.2691 34.7997 33.6005C34.7997 33.9321 34.5311 34.2005 34.1997 34.2005ZM32.9998 30.6005C33.3311 30.6005 33.5998 30.8692 33.5998 31.2005C33.5998 31.5321 33.3311 31.8005 32.9998 31.8005C32.6684 31.8005 32.3998 31.5321 32.3998 31.2005C32.3998 30.8692 32.6684 30.6005 32.9998 30.6005ZM31.7998 33.0005C32.1311 33.0005 32.3998 33.2691 32.3998 33.6005C32.3998 33.9321 32.1311 34.2005 31.7998 34.2005C31.4684 34.2005 31.1998 33.9321 31.1998 33.6005C31.1998 33.2691 31.4684 33.0005 31.7998 33.0005ZM29.9998 5.40069H25.1998V4.8007H28.1998C28.5311 4.8007 28.7998 4.53234 28.7998 4.2007V1.20072H29.9998V5.40069ZM33.1796 4.2007L34.7997 3.12083V4.2007H33.1796Z" fill="white"/>
</g>
<defs>
<clipPath id="clip0">
<rect width="36" height="36" fill="white"/>
</clipPath>
</defs>
</svg>
