<svg width="34" height="34" viewBox="0 0 34 34" fill="none" xmlns="http://www.w3.org/2000/svg">
<g clip-path="url(#clip0)">
<path d="M11.0641 17.3136C10.9467 17.1962 10.7701 17.161 10.6168 17.2246C10.4634 17.2881 10.3634 17.4378 10.3634 17.6038V24.888C10.3634 25.1147 10.5471 25.2984 10.7738 25.2984H18.0579C18.224 25.2984 18.3736 25.1984 18.4372 25.0451C18.5007 24.8917 18.4655 24.7151 18.3482 24.5977L11.0641 17.3136ZM11.1843 24.4775V18.5947L17.0671 24.4775H11.1843Z" fill="white"/>
<path d="M31.7778 2.77524L29.6438 0.641164C29.4835 0.480867 29.2236 0.480942 29.0633 0.641164L16.7297 12.9748C16.6902 13.0142 16.6593 13.0613 16.6386 13.1131L15.2867 16.5077L9.84659 11.0675L10.8228 10.0914C10.9831 9.93106 10.9831 9.67121 10.8228 9.51092C10.6626 9.35062 10.4027 9.35062 10.2424 9.51092L9.26615 10.4871L7.62856 8.84951V0.657208C7.62856 0.430494 7.44483 0.246765 7.21811 0.246765H2.51249C2.28578 0.246765 2.10205 0.430494 2.10205 0.657208V33.3428C2.10205 33.5695 2.28578 33.7533 2.51249 33.7533H7.21811C7.44483 33.7533 7.62856 33.5695 7.62856 33.3428V28.8541H26.4723L27.6186 30.0004C27.6987 30.0805 27.8037 30.1206 27.9088 30.1206C28.0139 30.1206 28.1189 30.0805 28.199 30.0004C28.3593 29.8401 28.3593 29.5802 28.199 29.4199L15.9113 17.1322L19.3059 15.7803C19.3577 15.7597 19.4048 15.7287 19.4442 15.6893L31.7778 3.35569C31.8548 3.27875 31.8981 3.17434 31.8981 3.06547C31.8981 2.95659 31.8548 2.85218 31.7778 2.77524ZM6.8076 32.9324H2.92294V32.202H3.62793C3.85464 32.202 4.03837 32.0183 4.03837 31.7916C4.03837 31.5648 3.85464 31.3811 3.62793 31.3811H2.92294V30.0889H3.62793C3.85464 30.0889 4.03837 29.9052 4.03837 29.6785C4.03837 29.4517 3.85464 29.268 3.62793 29.268H2.92294V27.9759H3.62793C3.85464 27.9759 4.03837 27.7921 4.03837 27.5654C4.03837 27.3387 3.85464 27.155 3.62793 27.155H2.92294V25.8627H3.62793C3.85464 25.8627 4.03837 25.679 4.03837 25.4523C4.03837 25.2256 3.85464 25.0419 3.62793 25.0419H2.92294V23.7497H3.62793C3.85464 23.7497 4.03837 23.566 4.03837 23.3393C4.03837 23.1126 3.85464 22.9288 3.62793 22.9288H2.92294V21.6366H3.62793C3.85464 21.6366 4.03837 21.4529 4.03837 21.2262C4.03837 20.9994 3.85464 20.8157 3.62793 20.8157H2.92294V19.5236H3.62793C3.85464 19.5236 4.03837 19.3398 4.03837 19.1131C4.03837 18.8864 3.85464 18.7027 3.62793 18.7027H2.92294V17.4105H3.62793C3.85464 17.4105 4.03837 17.2267 4.03837 17C4.03837 16.7733 3.85464 16.5896 3.62793 16.5896H2.92294V15.2974H3.62793C3.85464 15.2974 4.03837 15.1137 4.03837 14.887C4.03837 14.6603 3.85464 14.4765 3.62793 14.4765H2.92294V13.1843H3.62793C3.85464 13.1843 4.03837 13.0006 4.03837 12.7739C4.03837 12.5472 3.85464 12.3634 3.62793 12.3634H2.92294V11.0713H3.62793C3.85464 11.0713 4.03837 10.8875 4.03837 10.6608C4.03837 10.4341 3.85464 10.2504 3.62793 10.2504H2.92294V8.95816H3.62793C3.85464 8.95816 4.03837 8.77443 4.03837 8.54772C4.03837 8.321 3.85464 8.13727 3.62793 8.13727H2.92294V6.84505H3.62793C3.85464 6.84505 4.03837 6.66132 4.03837 6.43461C4.03837 6.20789 3.85464 6.02416 3.62793 6.02416H2.92294V4.73201H3.62793C3.85464 4.73201 4.03837 4.54828 4.03837 4.32157C4.03837 4.09486 3.85464 3.91113 3.62793 3.91113H2.92294V2.6189H3.62793C3.85464 2.6189 4.03837 2.43517 4.03837 2.20846C4.03837 1.98175 3.85464 1.79802 3.62793 1.79802H2.92294V1.06765H6.80767V32.9324H6.8076ZM7.62848 28.0332V10.0103L9.62592 12.0078L8.4581 13.1756C8.2978 13.3359 8.2978 13.5957 8.4581 13.756C8.53825 13.8362 8.64325 13.8762 8.74832 13.8762C8.85339 13.8762 8.95839 13.8362 9.03854 13.756L10.2064 12.5882L11.1201 13.5019L9.95226 14.6697C9.79197 14.83 9.79197 15.0899 9.95226 15.2502C10.0324 15.3303 10.1374 15.3704 10.2425 15.3704C10.3476 15.3704 10.4526 15.3303 10.5327 15.2502L11.7005 14.0824L12.6142 14.9961L11.4464 16.1639C11.2861 16.3242 11.2861 16.584 11.4464 16.7443C11.5266 16.8245 11.6316 16.8646 11.7366 16.8646C11.8417 16.8646 11.9467 16.8245 12.0269 16.7443L13.1947 15.5765L14.1084 16.4902L12.9406 17.6581C12.7803 17.8184 12.7803 18.0782 12.9406 18.2385C13.0207 18.3187 13.1257 18.3587 13.2308 18.3587C13.3359 18.3587 13.4409 18.3187 13.521 18.2385L14.6889 17.0707L15.6026 17.9844L14.4348 19.1522C14.2745 19.3125 14.2745 19.5724 14.4348 19.7327C14.5149 19.8128 14.6199 19.8529 14.725 19.8529C14.83 19.8529 14.935 19.8128 15.0152 19.7327L16.183 18.5648L17.0967 19.4786L15.9289 20.6464C15.7686 20.8067 15.7686 21.0665 15.9289 21.2268C16.0091 21.307 16.1141 21.3471 16.2191 21.3471C16.3242 21.3471 16.4292 21.307 16.5094 21.2268L17.6772 20.059L18.5909 20.9727L17.4231 22.1406C17.2628 22.3008 17.2628 22.5607 17.4231 22.721C17.5032 22.8011 17.6082 22.8412 17.7133 22.8412C17.8184 22.8412 17.9234 22.8011 18.0035 22.721L19.1713 21.5532L20.0851 22.4669L18.9172 23.6347C18.7569 23.795 18.7569 24.0549 18.9172 24.2152C18.9974 24.2953 19.1024 24.3354 19.2075 24.3354C19.3125 24.3354 19.4175 24.2953 19.4977 24.2152L20.6655 23.0473L21.5792 23.9611L20.4114 25.1289C20.2511 25.2892 20.2511 25.549 20.4114 25.7093C20.4916 25.7895 20.5965 25.8295 20.7016 25.8295C20.8067 25.8295 20.9117 25.7895 20.9918 25.7093L22.1597 24.5415L23.0734 25.4552L21.9056 26.623C21.7453 26.7833 21.7453 27.0432 21.9056 27.2035C21.9857 27.2836 22.0907 27.3237 22.1958 27.3237C22.3009 27.3237 22.4059 27.2836 22.486 27.2035L23.6538 26.0357L25.6513 28.0331H7.62848V28.0332ZM18.6675 14.332L28.8732 4.1262L29.3598 4.61276L19.154 14.8185L18.6675 14.332ZM18.087 13.7515L17.6005 13.265L27.8062 3.0592L28.2928 3.54576L18.087 13.7515ZM17.1706 13.9961L18.4229 15.2484L16.3417 16.0773L17.1706 13.9961ZM29.9403 4.03232L28.3868 2.47876L29.3536 1.5119L30.9072 3.06547L29.9403 4.03232Z" fill="white"/>
<path d="M29.2016 30.4225C29.0413 30.2622 28.7814 30.2622 28.6211 30.4225C28.4608 30.5828 28.4608 30.8427 28.6211 31.003L29.8875 32.2694C29.9677 32.3495 30.0727 32.3896 30.1778 32.3896C30.2828 32.3896 30.3878 32.3495 30.468 32.2694C30.6283 32.1091 30.6283 31.8492 30.468 31.6889L29.2016 30.4225Z" fill="white"/>
<path d="M31.4705 32.6915C31.3102 32.5312 31.0504 32.5313 30.8901 32.6917C30.7298 32.8521 30.7299 33.1119 30.8903 33.2721L30.9161 33.2979C30.9963 33.3779 31.1012 33.418 31.2063 33.418C31.3113 33.418 31.4164 33.3779 31.4966 33.2977C31.6569 33.1374 31.6568 32.8775 31.4964 32.7173L31.4705 32.6915Z" fill="white"/>
<path d="M18.3423 2.40181C18.4474 2.40181 18.5525 2.36174 18.6326 2.28152L18.6981 2.21607C18.8583 2.05577 18.8583 1.79585 18.698 1.63563C18.5377 1.47533 18.2778 1.4754 18.1175 1.6357L18.0521 1.70122C17.8919 1.86152 17.8919 2.12137 18.0522 2.28167C18.1323 2.36174 18.2373 2.40181 18.3423 2.40181Z" fill="white"/>
<path d="M16.0732 4.67082C16.1782 4.67082 16.2833 4.63074 16.3634 4.5506L17.6299 3.28419C17.7902 3.1239 17.7902 2.86405 17.6299 2.70375C17.4696 2.54353 17.2098 2.54345 17.0495 2.70375L15.783 3.97016C15.6227 4.13045 15.6227 4.3903 15.783 4.5506C15.8632 4.63074 15.9682 4.67082 16.0732 4.67082Z" fill="white"/>
<path d="M13.8043 6.93992C13.9093 6.93992 14.0143 6.89985 14.0945 6.8197L15.361 5.55329C15.5212 5.393 15.5212 5.13315 15.361 4.97285C15.2007 4.81256 14.9408 4.81256 14.7805 4.97285L13.514 6.23926C13.3537 6.39955 13.3537 6.6594 13.514 6.8197C13.5942 6.89985 13.6992 6.93992 13.8043 6.93992Z" fill="white"/>
<path d="M11.5351 9.20891C11.6402 9.20891 11.7452 9.16883 11.8254 9.08868L13.0918 7.82228C13.2521 7.66198 13.2521 7.40213 13.0918 7.24184C12.9315 7.08154 12.6715 7.08162 12.5113 7.24184L11.2449 8.50832C11.0846 8.66861 11.0846 8.92846 11.2449 9.08876C11.3251 9.16891 11.4301 9.20891 11.5351 9.20891Z" fill="white"/>
</g>
<defs>
<clipPath id="clip0">
<rect width="33.5065" height="33.5065" fill="white" transform="translate(0.246765 0.246765)"/>
</clipPath>
</defs>
</svg>
