<svg width="34" height="34" viewBox="0 0 34 34" fill="none" xmlns="http://www.w3.org/2000/svg">
<g clip-path="url(#clip0)">
<path d="M32.5528 17.1534L30.5857 15.1862C29.8935 14.494 28.9732 14.1128 27.9943 14.1128C27.0154 14.1128 26.0951 14.494 25.403 15.1862L23.4358 17.1534L22.3887 18.2004C21.6072 18.9819 21.6072 20.2535 22.3887 21.035C22.7795 21.4257 23.2927 21.6211 23.806 21.6211C24.3193 21.6211 24.8325 21.4257 25.2233 21.035L26.2703 19.9879L27.6241 18.6341C27.8282 18.43 28.1604 18.43 28.3645 18.6341L29.3481 19.6177L29.0622 19.9036L28.139 19.6381C28.0128 19.6018 27.8777 19.6143 27.7602 19.673L25.666 20.7201C25.5647 20.7707 25.4825 20.8529 25.4319 20.9542L24.3848 23.0483C24.3159 23.1861 24.3112 23.3472 24.3719 23.4887L24.7035 24.2624L24.3296 24.6363L19.8458 20.1525L21.5324 18.4658L21.5203 18.4537C21.533 18.4416 21.546 18.4298 21.5585 18.4173C21.5587 18.4171 21.5589 18.4169 21.5591 18.4166L27.841 12.1348C28.6151 11.3607 29.0414 10.3315 29.0414 9.23675V4.43508C29.0414 2.14759 27.1978 0.283668 24.9185 0.248427V0.246765H20.0514C18.9567 0.246765 17.9274 0.673067 17.1533 1.44719L15.1862 3.41433C14.494 4.10649 14.1128 5.02681 14.1128 6.00569C14.1128 6.98458 14.494 7.9049 15.1862 8.59706L17.1533 10.5642L18.2004 11.6113C18.5912 12.002 19.1044 12.1974 19.6177 12.1974C20.131 12.1974 20.6442 12.002 21.035 11.6113C21.8165 10.8298 21.8165 9.55821 21.035 8.77674L19.9879 7.72966L18.6341 6.37588C18.43 6.17176 18.43 5.83963 18.6341 5.6355L19.6177 4.65191L19.9036 4.93777L19.6381 5.861C19.6018 5.98719 19.6142 6.12239 19.673 6.23982L20.72 8.33398C20.7707 8.43531 20.8529 8.51746 20.9542 8.56811L23.0483 9.61519C23.1219 9.65196 23.2021 9.67047 23.2825 9.67047C23.3526 9.67047 23.4227 9.65641 23.4887 9.62813L24.2624 9.29655L24.6363 9.67045L20.1525 14.1542L18.4658 12.4676L18.4537 12.4797C18.4416 12.467 18.4298 12.454 18.4173 12.4415C18.4171 12.4413 18.4168 12.4411 18.4166 12.4409L12.1348 6.15904C11.3607 5.38492 10.3315 4.95862 9.23674 4.95862H4.43506C2.14757 4.95862 0.283657 6.80223 0.248411 9.08148H0.24675V13.9486C0.24675 15.0434 0.673052 16.0726 1.44718 16.8467L3.41431 18.8138C4.10648 19.506 5.02679 19.8872 6.00568 19.8872C6.98457 19.8872 7.90488 19.506 8.59704 18.8138L10.5642 16.8467L11.6113 15.7996C12.3928 15.0181 12.3928 13.7465 11.6113 12.965C10.8298 12.1836 9.55826 12.1836 8.77672 12.965L7.72964 14.0121L6.37587 15.3659C6.17174 15.57 5.83961 15.57 5.63549 15.3659L4.65189 14.3823L4.93775 14.0964L5.86099 14.3619C5.90841 14.3756 5.95711 14.3823 6.00568 14.3823C6.0863 14.3823 6.1665 14.3637 6.23981 14.327L8.33396 13.28C8.43529 13.2293 8.51744 13.1472 8.56809 13.0458L9.61517 10.9517C9.68406 10.814 9.68879 10.6529 9.62811 10.5113L9.29654 9.73765L9.67043 9.36376L14.1542 13.8475L12.4676 15.5342L12.4797 15.5463C12.467 15.5584 12.454 15.5702 12.4415 15.5827C12.4413 15.5829 12.4411 15.5832 12.4409 15.5834L6.15903 21.8652C5.3849 22.6393 4.9586 23.6685 4.9586 24.7633V29.5649C4.9586 31.8524 6.80222 33.7164 9.08147 33.7516V33.7533H13.9486C15.0433 33.7533 16.0726 33.327 16.8466 32.5528L18.8138 30.5857C19.506 29.8935 19.8872 28.9732 19.8872 27.9943C19.8872 27.0154 19.506 26.0951 18.8138 25.403L16.8466 23.4358L15.7996 22.3888C15.0181 21.6072 13.7465 21.6073 12.965 22.3888C12.1835 23.1702 12.1835 24.4418 12.965 25.2233L14.0121 26.2704L15.3659 27.6241C15.57 27.8283 15.57 28.1604 15.3659 28.3645L14.3823 29.3481L14.0964 29.0623L14.3619 28.139C14.3982 28.0128 14.3858 27.8776 14.327 27.7602L13.2799 25.666C13.2293 25.5647 13.1471 25.4826 13.0458 25.4319L10.9517 24.3848C10.8139 24.3159 10.6528 24.3112 10.5113 24.3719L9.73763 24.7035L9.36374 24.3296L13.8475 19.8458L15.5342 21.5324L15.5463 21.5203C15.5584 21.5331 15.5702 21.546 15.5827 21.5585C15.5829 21.5587 15.5831 21.5589 15.5834 21.5592L21.8652 27.841C22.6393 28.6151 23.6685 29.0414 24.7633 29.0414H29.5649C31.8524 29.0414 33.7163 27.1978 33.7516 24.9185H33.7532V20.0514C33.7532 18.9567 33.3269 17.9275 32.5528 17.1534ZM32.7062 20.0514V22.0823C32.4635 21.8073 32.1834 21.5618 31.87 21.3542C31.2484 20.9416 30.5283 20.7076 29.776 20.6706L32.1512 18.2954C32.5119 18.8058 32.7062 19.4136 32.7062 20.0514ZM24.4829 20.2946C24.1097 20.6678 23.5023 20.6678 23.1291 20.2946C22.7559 19.9214 22.7559 19.314 23.1291 18.9408L23.806 18.2639L25.1598 19.6177L24.4829 20.2946ZM29.1049 17.8937C28.4925 17.2814 27.4961 17.2814 26.8837 17.8937L25.9002 18.8773L24.5464 17.5236L26.1433 15.9266C26.6378 15.4322 27.2951 15.1599 27.9943 15.1599C28.6935 15.1599 29.3509 15.4322 29.8453 15.9266L31.4422 17.5236L30.0885 18.8773L29.1049 17.8937ZM26.2904 21.5785L28.0458 20.7008L28.446 20.8159C28.3303 20.8483 28.2163 20.8856 28.1042 20.9283C26.9588 21.3491 26.061 22.2469 25.6401 23.3923C25.6124 23.4651 25.5877 23.5388 25.5644 23.6131L25.43 23.2994L26.2904 21.5785ZM17.5678 22.0628C17.886 21.9698 18.1772 21.7986 18.4173 21.5585L19.0942 20.8816L23.5892 25.3766L22.2354 26.7304L17.5678 22.0628ZM13.1819 16.3231C13.3598 16.1452 13.6002 16.0472 13.8588 16.0472C14.1173 16.0472 14.3577 16.1452 14.5357 16.3231L15.2125 17L13.8588 18.3538L13.1819 17.6769C13.0022 17.4973 12.9033 17.2569 12.9033 17C12.9033 16.7432 13.0022 16.5028 13.1819 16.3231ZM16.2596 15.9529L15.9529 16.2596L15.276 15.5827C15.0319 15.3386 14.7338 15.1663 14.4074 15.0752L14.8946 14.5879L16.2596 15.9529ZM17.6769 13.1819C17.8548 13.3598 17.9528 13.6002 17.9528 13.8588C17.9528 14.1173 17.8548 14.3577 17.6769 14.5357L17 15.2126L15.6462 13.8588L16.3231 13.1819C16.5028 13.0022 16.7431 12.9033 17 12.9033C17.2568 12.9033 17.4972 13.0022 17.6769 13.1819ZM20.8181 17.6769C20.6402 17.8549 20.3998 17.9529 20.1412 17.9529C19.8827 17.9529 19.6423 17.8549 19.4643 17.6769L18.7875 17L20.1412 15.6462L20.8181 16.3232C20.9978 16.5028 21.0967 16.7432 21.0967 17C21.0967 17.2569 20.9978 17.4973 20.8181 17.6769ZM17.7404 18.0471L18.0471 17.7404L18.724 18.4173C18.9681 18.6614 19.2662 18.8337 19.5926 18.9248L19.1054 19.4121L17.7404 18.0471ZM17 17.3067L16.6933 17L17 16.6933L17.3067 17L17 17.3067ZM18.0471 16.2596L17.7404 15.9529L18.4173 15.276C18.6614 15.0319 18.8337 14.7338 18.9248 14.4074L19.4121 14.8946L18.0471 16.2596ZM15.9529 17.7404L16.2596 18.0471L15.5827 18.724C15.3386 18.9681 15.1663 19.2662 15.0752 19.5926L14.5879 19.1054L15.9529 17.7404ZM16.3231 19.4644L17 18.7875L18.3538 20.1412L17.6769 20.8181C17.4972 20.9978 17.2568 21.0967 17 21.0967C16.7431 21.0967 16.5028 20.9978 16.3231 20.8181C16.1452 20.6402 16.0472 20.3998 16.0472 20.1412C16.0472 19.8827 16.1452 19.6423 16.3231 19.4644ZM27.4393 10.9928L25.0641 8.61756C25.8165 8.58056 26.5365 8.34658 27.1579 7.9342C27.4713 7.7265 27.7516 7.48087 27.9943 7.2058V9.23675C27.9943 9.87453 27.8 10.4824 27.4393 10.9928ZM27.9943 4.43508C27.9943 4.58568 27.9847 4.71679 27.9648 4.83582C27.9637 4.84256 27.9627 4.84933 27.9618 4.85611C27.8484 5.75063 27.3446 6.55441 26.5792 7.06156C26.0718 7.39832 25.4749 7.57631 24.8531 7.57631C24.5975 7.57631 24.3493 7.54628 24.111 7.48811L25.2233 6.37588C25.4277 6.17144 25.4277 5.83995 25.2233 5.6355C25.0188 5.43106 24.6873 5.43106 24.4829 5.6355L23.0848 7.0336C22.7574 6.81228 22.4759 6.53073 22.2546 6.20336L23.6527 4.80527C23.8571 4.60082 23.8571 4.26933 23.6527 4.06489C23.4482 3.86044 23.1167 3.86044 22.9123 4.06489L21.8 5.17711C21.7419 4.93884 21.7118 4.69064 21.7118 4.43508C21.7118 3.81328 21.8899 3.2164 22.2268 2.70865C22.7337 1.94363 23.5375 1.43981 24.4321 1.32634C24.4388 1.32548 24.4455 1.32449 24.4522 1.32337C24.5715 1.30349 24.7026 1.29384 24.8531 1.29384C26.5852 1.29384 27.9943 2.70299 27.9943 4.43508ZM20.0514 1.29384H22.0823C21.8073 1.53646 21.5618 1.81665 21.3542 2.12996C20.9416 2.75165 20.7076 3.47171 20.6706 4.22403L18.2954 1.84882C18.8058 1.48816 19.4136 1.29384 20.0514 1.29384ZM20.2946 9.51712C20.6678 9.89034 20.6678 10.4977 20.2946 10.8709C19.9214 11.2441 19.314 11.2441 18.9408 10.8709L18.2639 10.194L19.6177 8.84023L20.2946 9.51712ZM17.8937 4.89512C17.2814 5.50749 17.2814 6.50389 17.8937 7.11626L18.8773 8.09985L17.5235 9.45362L15.9266 7.85668C15.4322 7.36225 15.1599 6.70489 15.1599 6.00569C15.1599 5.3065 15.4322 4.64914 15.9266 4.15471L17.5235 2.55776L18.8773 3.91153L17.8937 4.89512ZM23.2994 8.57006L21.5785 7.70962L20.7008 5.95418L20.8159 5.55396C20.8483 5.66967 20.8856 5.78374 20.9283 5.89583C21.3491 7.04124 22.2469 7.93906 23.3923 8.35989C23.465 8.38757 23.5388 8.41229 23.6131 8.43563L23.2994 8.57006ZM26.7304 11.7646L22.0628 16.4323C21.9698 16.1141 21.7986 15.8228 21.5585 15.5827L20.8816 14.9059L25.3766 10.4108L26.7304 11.7646ZM10.9928 6.56068L8.61755 8.93588C8.58054 8.18353 8.34656 7.46347 7.93418 6.8421C7.72648 6.52866 7.48086 6.24838 7.20579 6.00569H9.23674C9.87451 6.00569 10.4824 6.20001 10.9928 6.56068ZM4.43506 6.00569C4.58566 6.00569 4.71677 6.01534 4.8358 6.03522C4.84254 6.03634 4.84932 6.03733 4.85609 6.03819C5.75062 6.15163 6.5544 6.65545 7.06154 7.42079C7.39831 7.92822 7.57629 8.5251 7.57629 9.14693C7.57629 9.40249 7.54627 9.65069 7.4881 9.88897L6.37587 8.77674C6.17143 8.57229 5.83993 8.57229 5.63549 8.77674C5.43101 8.98118 5.43101 9.31267 5.63549 9.51712L7.03358 10.9152C6.81227 11.2426 6.53072 11.5241 6.20335 11.7454L4.80525 10.3474C4.60081 10.1429 4.26931 10.1429 4.06487 10.3474C3.8604 10.5518 3.8604 10.8833 4.06487 11.0877L5.1771 12.2C4.93882 12.2581 4.69062 12.2882 4.43506 12.2882C3.81326 12.2882 3.21639 12.1101 2.70864 11.7732C1.94362 11.2663 1.43979 10.4625 1.32633 9.56792C1.32546 9.56118 1.32447 9.55447 1.32335 9.54776C1.30348 9.42851 1.29383 9.2974 1.29383 9.14693C1.29383 7.41485 2.70298 6.00569 4.43506 6.00569ZM1.29383 13.9486V11.9177C1.53645 12.1927 1.81663 12.4382 2.12994 12.6458C2.75163 13.0584 3.47169 13.2924 4.22402 13.3294L1.84881 15.7046C1.48814 15.1942 1.29383 14.5864 1.29383 13.9486ZM9.5171 13.7054C9.89033 13.3322 10.4977 13.3322 10.8709 13.7054C11.2441 14.0787 11.2441 14.686 10.8709 15.0592L10.194 15.7361L8.84021 14.3823L9.5171 13.7054ZM4.89511 16.1063C5.20129 16.4125 5.60347 16.5656 6.00568 16.5656C6.40789 16.5656 6.81006 16.4125 7.11625 16.1063L8.09983 15.1227L9.45361 16.4765L7.85666 18.0734C7.36223 18.5678 6.70487 18.8401 6.00568 18.8401C5.30649 18.8401 4.64912 18.5678 4.15469 18.0734L2.55775 16.4765L3.91151 15.1227L4.89511 16.1063ZM7.70961 12.4215L5.95417 13.2992L5.55394 13.1841C5.66965 13.1517 5.78372 13.1144 5.89582 13.0717C7.04122 12.6509 7.93904 11.7531 8.35988 10.6077C8.38755 10.535 8.41227 10.4612 8.43561 10.3869L8.57004 10.7006L7.70961 12.4215ZM11.7646 7.26961L16.4322 11.9372C16.114 12.0302 15.8228 12.2014 15.5827 12.4415L14.9058 13.1184L10.4108 8.62338L11.7646 7.26961ZM6.56066 23.0072L8.93587 25.3825C8.18351 25.4195 7.46345 25.6534 6.84208 26.0658C6.52864 26.2735 6.24836 26.5192 6.00568 26.7942V24.7633C6.00568 24.1255 6.19999 23.5176 6.56066 23.0072ZM6.00568 29.5649C6.00568 29.4143 6.01533 29.2832 6.0352 29.1642C6.03632 29.1575 6.03731 29.1507 6.03818 29.1439C6.15161 28.2494 6.65544 27.4456 7.42077 26.9385C7.92821 26.6017 8.52508 26.4237 9.14691 26.4237C9.40247 26.4237 9.65067 26.4537 9.88895 26.5119L8.77672 27.6241C8.57225 27.8286 8.57225 28.1601 8.77672 28.3645C8.87894 28.4667 9.01293 28.5179 9.14691 28.5179C9.2809 28.5179 9.41488 28.4667 9.5171 28.3645L10.9152 26.9664C11.2426 27.1877 11.5241 27.4693 11.7454 27.7967L10.3473 29.1948C10.1429 29.3992 10.1429 29.7307 10.3473 29.9351C10.4496 30.0374 10.5835 30.0885 10.7175 30.0885C10.8515 30.0885 10.9855 30.0374 11.0877 29.9351L12.2 28.8229C12.2581 29.0612 12.2881 29.3094 12.2881 29.5649C12.2881 30.1867 12.1101 30.7836 11.7732 31.2914C11.2662 32.0564 10.4625 32.5602 9.56791 32.6737C9.56117 32.6745 9.55446 32.6755 9.54775 32.6767C9.42849 32.6965 9.29738 32.7062 9.14691 32.7062C7.41483 32.7062 6.00568 31.297 6.00568 29.5649ZM13.9486 32.7062H11.9177C12.1927 32.4636 12.4382 32.1834 12.6458 31.8701C13.0584 31.2484 13.2924 30.5283 13.3294 29.776L15.7046 32.1512C15.1942 32.5119 14.5864 32.7062 13.9486 32.7062ZM13.7054 24.4829C13.3322 24.1097 13.3322 23.5024 13.7054 23.1291C13.892 22.9425 14.1372 22.8492 14.3823 22.8492C14.6274 22.8492 14.8726 22.9425 15.0592 23.1291L15.7361 23.806L14.3823 25.1598L13.7054 24.4829ZM16.1063 29.1049C16.7186 28.4925 16.7186 27.4961 16.1063 26.8838L15.1227 25.9002L16.4765 24.5464L18.0734 26.1433C18.5678 26.6378 18.8401 27.2951 18.8401 27.9943C18.8401 28.6935 18.5678 29.3509 18.0734 29.8453L16.4765 31.4423L15.1227 30.0885L16.1063 29.1049ZM10.7006 25.43L12.4215 26.2904L13.2992 28.0458L13.1841 28.4461C13.1517 28.3304 13.1144 28.2163 13.0717 28.1042C12.6509 26.9588 11.7531 26.061 10.6077 25.6401C10.535 25.6125 10.4612 25.5877 10.3869 25.5644L10.7006 25.43ZM7.2696 22.2354L11.9372 17.5678C12.0302 17.886 12.2014 18.1772 12.4415 18.4173L13.1184 19.0942L8.62337 23.5892L7.2696 22.2354ZM23.0072 27.4393L25.3824 25.0641C25.4195 25.8165 25.6534 26.5366 26.0658 27.1579C26.2735 27.4714 26.5191 27.7516 26.7942 27.9943H24.7633C24.1255 27.9943 23.5176 27.8 23.0072 27.4393ZM29.5649 27.9943C29.4143 27.9943 29.2832 27.9847 29.1642 27.9648C29.1574 27.9637 29.1507 27.9627 29.1439 27.9618C28.2494 27.8484 27.4456 27.3446 26.9384 26.5792C26.6017 26.0718 26.4237 25.4749 26.4237 24.8531C26.4237 24.5975 26.4537 24.3493 26.5119 24.1111L27.6241 25.2233C27.7263 25.3255 27.8603 25.3766 27.9943 25.3766C28.1283 25.3766 28.2623 25.3255 28.3645 25.2233C28.569 25.0188 28.569 24.6873 28.3645 24.4829L26.9664 23.0848C27.1877 22.7574 27.4693 22.4759 27.7966 22.2546L29.1947 23.6527C29.297 23.7549 29.4309 23.806 29.5649 23.806C29.6989 23.806 29.8329 23.7549 29.9351 23.6527C30.1396 23.4482 30.1396 23.1167 29.9351 22.9123L28.8229 21.8001C29.0612 21.7419 29.3094 21.7119 29.5649 21.7119C30.1867 21.7119 30.7836 21.8899 31.2914 22.2268C32.0564 22.7338 32.5602 23.5375 32.6737 24.4321C32.6745 24.4388 32.6755 24.4456 32.6766 24.4523C32.6965 24.5715 32.7062 24.7026 32.7062 24.8531C32.7062 26.5852 31.297 27.9943 29.5649 27.9943Z" fill="white"/>
</g>
<defs>
<clipPath id="clip0">
<rect width="33.5065" height="33.5065" fill="white" transform="translate(0.24675 0.246765)"/>
</clipPath>
</defs>
</svg>
