<svg width="34" height="34" viewBox="0 0 34 34" fill="none" xmlns="http://www.w3.org/2000/svg">
<g clip-path="url(#clip0)">
<path d="M28.1688 16.9997C28.4772 16.9997 28.7273 16.7496 28.7273 16.4412V8.62305H33.1948C33.5032 8.62305 33.7533 8.37301 33.7533 8.06461V5.83084C33.7504 5.81011 33.7463 5.78966 33.741 5.76941C33.7374 5.729 33.7294 5.68907 33.717 5.65046C33.7066 5.62205 33.6939 5.59462 33.679 5.56837C33.6287 5.47316 33.5508 5.39533 33.4556 5.345C33.4276 5.32936 33.3983 5.31631 33.3679 5.30591C33.3517 5.30032 33.3389 5.28971 33.3221 5.2858L12.1014 0.259828C12.0596 0.250475 12.0169 0.246007 11.974 0.246426H9.74027C9.67424 0.247892 9.60897 0.261085 9.54761 0.285517C9.53253 0.291101 9.51857 0.296127 9.50405 0.302828C9.48953 0.30953 9.47836 0.311205 9.46608 0.317906L0.531012 5.34388C0.503439 5.36231 0.477681 5.38325 0.453947 5.40642C0.435588 5.41948 0.418067 5.43365 0.401453 5.44887C0.354684 5.49647 0.316919 5.55211 0.289765 5.61305V5.61975C0.265403 5.68111 0.25214 5.74638 0.250674 5.81241C0.250674 5.81918 0.246765 5.8247 0.246765 5.8314V8.06517C0.246765 8.37356 0.496807 8.62361 0.805207 8.62361H8.62339V19.0022L6.55325 21.0724C6.44854 21.1771 6.38962 21.3191 6.38962 21.4672V30.4023H5.27274V33.7529H16.4416V30.4023H15.3247V21.4672C15.3247 21.3191 15.2658 21.1771 15.1611 21.0724L13.0909 19.0022V8.62305H24.2598V16.4412C24.2598 16.7496 24.5098 16.9997 24.8182 16.9997H25.9351V18.675C25.9351 18.9834 26.1851 19.2334 26.4935 19.2334C27.1104 19.2334 27.6104 19.7334 27.6104 20.3503C27.6104 20.9672 27.1104 21.4672 26.4935 21.4672C25.8766 21.4672 25.3766 20.9672 25.3766 20.3503V19.7919H24.2598V20.3503C24.2626 21.1656 24.7108 21.914 25.428 22.3015L21.2363 26.4932H19.7922C19.4838 26.4932 19.2338 26.7432 19.2338 27.0516V32.0776C19.2338 32.386 19.4838 32.636 19.7922 32.636H33.1948C33.5032 32.636 33.7533 32.386 33.7533 32.0776V27.0516C33.7533 26.7432 33.5032 26.4932 33.1948 26.4932H31.7507L27.559 22.3015C28.6407 21.7185 29.0448 20.3691 28.4619 19.2875C28.1665 18.7396 27.6552 18.3404 27.052 18.1869V16.9997H28.1688ZM28.7273 6.38928H32.6364V7.50617H28.7273V6.38928ZM32.6364 27.6101V31.5191H20.3507V27.6101H32.6364ZM30.1714 26.4932H22.8156L26.4935 22.8153L30.1714 26.4932ZM27.6104 13.649H25.3766V8.62305H27.6104V13.649ZM27.6104 7.50617H25.3766V6.38928H27.6104V7.50617ZM10.2987 1.36331H11.4156V5.2724H10.2987V1.36331ZM9.74027 6.38928H11.974V7.27497L11.7428 7.50617H9.74027V6.38928ZM11.974 8.85424V12.8594L9.97147 10.8568L11.974 8.85424ZM9.74027 8.62305H10.626L9.74027 9.50874V8.62305ZM9.74027 12.205L11.7428 14.2075L9.74027 16.21V12.205ZM11.974 15.5556V19.2334V19.5607L9.97147 17.5581L11.974 15.5556ZM9.74027 19.2334V18.9062L11.7428 20.9088L9.74027 22.9113V19.2334ZM11.974 22.2569V26.2621L9.97147 24.2594L11.974 22.2569ZM9.74027 25.6076L11.7428 27.6101L9.74027 29.6126V25.6076ZM11.974 28.9582V30.4023H10.5299L11.974 28.9582ZM9.18183 1.7598V5.2724H2.93678L9.18183 1.7598ZM1.36365 7.50617V6.38928H8.62339V7.50617H1.36365ZM7.50651 21.6985L8.62339 20.5816V30.4023H7.50651V21.6985ZM15.3247 31.5191V32.636H6.38962V31.5191H15.3247ZM14.2078 21.6985V30.4023H13.0909V20.5816L14.2078 21.6985ZM24.2598 7.50617H13.0909V6.38928H24.2598V7.50617ZM12.5325 5.2724V1.51074L28.414 5.2724H28.1688H12.5325ZM25.3766 15.8828V14.7659H27.6104V15.8828H25.3766Z" fill="white"/>
</g>
<defs>
<clipPath id="clip0">
<rect width="33.5065" height="33.5065" fill="white" transform="translate(0.246765 0.246765)"/>
</clipPath>
</defs>
</svg>
