<svg width="16" height="16" viewBox="0 0 16 16" fill="none" xmlns="http://www.w3.org/2000/svg">
<g clip-path="url(#clip0)">
<path d="M15.0136 9.35318C15.0976 8.91524 15.142 8.46333 15.142 8.00094C15.142 4.05629 11.944 0.858552 7.9995 0.858552C7.53707 0.858552 7.08511 0.903016 6.64712 0.986997C5.07029 -0.387543 2.67624 -0.325236 1.17476 1.1762C-0.326775 2.67758 -0.38913 5.07178 0.985555 6.64871C0.901622 7.08661 0.857159 7.53856 0.857159 8.00094C0.857159 11.9456 4.05509 15.1434 7.99955 15.1434C8.46203 15.1434 8.91403 15.0989 9.35207 15.0149C10.9288 16.3895 13.3229 16.3272 14.8244 14.8257C16.3257 13.3243 16.3882 10.9301 15.0136 9.35318ZM8.13561 12.4001C6.02022 12.4001 4.25743 11.4546 4.25743 10.3006C4.25743 9.78788 4.54574 9.32297 5.20271 9.32297C6.21252 9.32297 6.30877 10.7653 8.03979 10.7653C8.87292 10.7653 9.40187 10.3967 9.40187 9.91603C9.40187 9.32297 8.88906 9.22687 8.05575 9.01856L6.67752 8.68211C5.31505 8.34545 4.25743 7.78459 4.25743 6.21396C4.25743 4.30683 6.14837 3.60177 7.76705 3.60177C9.54612 3.60177 11.341 4.30683 11.341 5.3805C11.341 5.92532 10.9721 6.40641 10.3633 6.40641C9.44978 6.40641 9.41749 5.3326 7.94345 5.3326C7.12618 5.3326 6.59732 5.5569 6.59732 6.05381C6.59732 6.59862 7.12618 6.72668 7.84754 6.88708L8.82486 7.11153C10.1548 7.41579 11.7417 7.9768 11.7417 9.61177C11.7417 11.5186 9.89839 12.4001 8.13561 12.4001Z" fill="#E33741"/>
</g>
<defs>
<clipPath id="clip0">
<rect width="16" height="16" fill="white"/>
</clipPath>
</defs>
</svg>
