<svg width="16" height="17" viewBox="0 0 16 17" fill="none" xmlns="http://www.w3.org/2000/svg">
<path d="M12.3971 0.372625C12.2607 0.419055 12.0598 0.714464 11.7949 1.25864C11.7114 1.40606 11.5979 1.61612 11.454 1.88793C11.31 2.15998 11.1774 2.40691 11.0561 2.62828C10.9349 2.85011 10.8175 3.05792 10.7041 3.2521C10.6813 3.28313 10.6151 3.38028 10.505 3.5435C10.3953 3.70689 10.3138 3.84467 10.2607 3.95758C10.2078 4.07025 10.1813 4.18108 10.1813 4.2899C10.1813 4.44533 10.2893 4.63946 10.505 4.87255C10.7211 5.10564 10.9558 5.31946 11.2098 5.51368C11.4637 5.70793 11.6983 5.91395 11.9142 6.13136C12.1302 6.3491 12.2381 6.528 12.2381 6.66774C12.2381 6.7379 12.2191 6.82537 12.1815 6.9302C12.1436 7.03498 12.1112 7.11469 12.085 7.16941C12.0583 7.22364 12.0055 7.31671 11.9257 7.44894C11.8461 7.58141 11.8025 7.65508 11.7949 7.67059C11.219 8.73539 10.5599 9.64861 9.81776 10.4104C9.07515 11.172 8.18515 11.8483 7.14722 12.439C7.13205 12.4467 7.06005 12.4915 6.93134 12.5731C6.8025 12.6548 6.71171 12.7092 6.65854 12.7364C6.60556 12.7636 6.52787 12.7966 6.42562 12.8354C6.32337 12.8742 6.2382 12.8937 6.16994 12.8937C6.03366 12.8937 5.85933 12.7829 5.64719 12.5614C5.43517 12.3399 5.23433 12.0989 5.04508 11.8386C4.85582 11.5781 4.64743 11.3373 4.42024 11.1157C4.19294 10.8942 4.00364 10.7835 3.85216 10.7835C3.74617 10.7835 3.63811 10.8107 3.5283 10.865C3.41825 10.9194 3.28396 11.003 3.12479 11.1157C2.96571 11.2285 2.8711 11.2965 2.84065 11.3199C2.6514 11.4363 2.44877 11.5567 2.23285 11.6812C2.01696 11.8057 1.77633 11.9416 1.51121 12.0893C1.24621 12.237 1.0416 12.3535 0.897676 12.4391C0.367484 12.7109 0.0794828 12.9169 0.0341891 13.0568C0.0114626 13.1113 -1.48421e-07 13.1929 -1.43889e-07 13.3016C-1.35134e-07 13.5116 0.037811 13.7855 0.113672 14.1236C0.189414 14.4618 0.268857 14.728 0.35232 14.9223C0.511326 15.3109 0.973418 15.7228 1.73844 16.1582C2.4504 16.5546 3.15508 16.7527 3.85196 16.7527C4.05634 16.7527 4.25518 16.7391 4.44854 16.7119C4.64169 16.6847 4.85953 16.6361 5.10199 16.5661C5.34438 16.4962 5.52444 16.4398 5.6417 16.3972C5.75903 16.3545 5.96922 16.2748 6.27235 16.1582C6.57539 16.0417 6.76091 15.9717 6.82909 15.9484C7.57154 15.6764 8.23435 15.3538 8.81771 14.9808C9.78735 14.367 10.7894 13.5294 11.8235 12.4685C12.8576 11.4075 13.6739 10.3796 14.2723 9.38469C14.6359 8.78623 14.9502 8.10595 15.2156 7.34431C15.2382 7.27432 15.3063 7.08398 15.4202 6.77318C15.5338 6.46226 15.6114 6.24652 15.6531 6.12614C15.6948 6.00571 15.7498 5.82093 15.8181 5.57244C15.8863 5.32342 15.9337 5.10013 15.9604 4.90195C15.9865 4.70365 16 4.4996 16 4.28986C16 3.5749 15.8068 2.85186 15.4205 2.12126C14.9963 1.33644 14.5948 0.862453 14.2157 0.699231C14.0265 0.613395 13.767 0.532091 13.4374 0.454379C13.1079 0.376422 12.841 0.337711 12.6364 0.337711C12.53 0.337465 12.4506 0.349185 12.3971 0.372625Z" fill="#E5363F"/>
</svg>
