<svg width="20" height="21" viewBox="0 0 20 21" fill="none" xmlns="http://www.w3.org/2000/svg">
<path d="M15.4963 0.446563C15.3259 0.503129 15.0748 0.863033 14.7437 1.52602C14.6393 1.70562 14.4974 1.96155 14.3175 2.29269C14.1375 2.62414 13.9717 2.92498 13.8202 3.19469C13.6687 3.46494 13.5219 3.71812 13.3801 3.95469C13.3517 3.9925 13.2689 4.11086 13.1313 4.30971C12.9941 4.50877 12.8923 4.67663 12.8258 4.8142C12.7598 4.95146 12.7266 5.08649 12.7266 5.21907C12.7266 5.40843 12.8616 5.64495 13.1313 5.92893C13.4014 6.21291 13.6947 6.47341 14.0122 6.71003C14.3296 6.94669 14.6229 7.19769 14.8928 7.46257C15.1628 7.72784 15.2977 7.9458 15.2977 8.11605C15.2977 8.20153 15.2739 8.30809 15.2268 8.43581C15.1795 8.56347 15.139 8.66058 15.1063 8.72725C15.0729 8.79332 15.0068 8.9067 14.9071 9.0678C14.8076 9.22919 14.7532 9.31895 14.7437 9.33785C14.0238 10.6351 13.1999 11.7477 12.2722 12.6758C11.3439 13.6036 10.2314 14.4276 8.93402 15.1473C8.91507 15.1567 8.82507 15.2113 8.66417 15.3107C8.50313 15.4102 8.38964 15.4765 8.32318 15.5096C8.25696 15.5428 8.15984 15.583 8.03203 15.6303C7.90422 15.6775 7.79775 15.7013 7.71243 15.7013C7.54208 15.7013 7.32417 15.5663 7.05899 15.2964C6.79396 15.0265 6.54292 14.7329 6.30635 14.4158C6.06978 14.0984 5.80928 13.8051 5.5253 13.5351C5.24117 13.2653 5.00455 13.1304 4.8152 13.1304C4.68271 13.1304 4.54763 13.1635 4.41037 13.2297C4.27281 13.296 4.10495 13.3978 3.90599 13.5351C3.70713 13.6725 3.58887 13.7554 3.55081 13.7838C3.31425 13.9257 3.06096 14.0724 2.79106 14.224C2.52121 14.3757 2.22041 14.5413 1.88901 14.7213C1.55777 14.9012 1.302 15.0431 1.12209 15.1474C0.459355 15.4786 0.0993535 15.7295 0.0427363 15.9C0.0143282 15.9663 -1.80825e-07 16.0658 -1.75303e-07 16.1983C-1.64637e-07 16.4541 0.0472638 16.7878 0.14209 17.1997C0.236767 17.6118 0.336071 17.936 0.4404 18.1728C0.639157 18.6463 1.21677 19.1481 2.17305 19.6785C3.063 20.1614 3.94385 20.4028 4.81495 20.4028C5.07042 20.4028 5.31898 20.3863 5.56067 20.3531C5.80212 20.32 6.07441 20.2608 6.37749 20.1755C6.68048 20.0903 6.90556 20.0216 7.05212 19.9696C7.19879 19.9177 7.46153 19.8206 7.84044 19.6785C8.21924 19.5366 8.45114 19.4513 8.53636 19.4229C9.46443 19.0915 10.2929 18.6985 11.0221 18.244C12.2342 17.4962 13.4868 16.4758 14.7794 15.1833C16.072 13.8907 17.0924 12.6383 17.8404 11.4262C18.2949 10.6971 18.6878 9.86825 19.0194 8.94034C19.0477 8.85506 19.1328 8.62317 19.2752 8.24451C19.4172 7.8657 19.5143 7.60287 19.5664 7.4562C19.6185 7.30948 19.6873 7.08436 19.7726 6.78162C19.8579 6.47823 19.9171 6.20619 19.9505 5.96475C19.9832 5.72316 20 5.47455 20 5.21902C20 4.34797 19.7585 3.46707 19.2756 2.57697C18.7454 1.6208 18.2435 1.04333 17.7696 0.844474C17.5331 0.739896 17.2088 0.640842 16.7968 0.546165C16.3849 0.451188 16.0512 0.404023 15.7955 0.404023C15.6625 0.403726 15.5632 0.418004 15.4963 0.446563Z" fill="#E5363F"/>
</svg>
