<svg width="16" height="17" viewBox="0 0 16 17" fill="none" xmlns="http://www.w3.org/2000/svg">
<path d="M12.3971 0.37264C12.2607 0.419071 12.0598 0.714479 11.7949 1.25866C11.7114 1.40608 11.5979 1.61614 11.454 1.88794C11.31 2.15999 11.1774 2.40693 11.0561 2.6283C10.9349 2.85012 10.8175 3.05794 10.7041 3.25211C10.6813 3.28315 10.6151 3.3803 10.505 3.54352C10.3953 3.7069 10.3138 3.84468 10.2607 3.9576C10.2078 4.07026 10.1813 4.18109 10.1813 4.28992C10.1813 4.44534 10.2893 4.63948 10.505 4.87257C10.7211 5.10566 10.9558 5.31948 11.2098 5.51369C11.4637 5.70795 11.6983 5.91397 11.9142 6.13138C12.1302 6.34912 12.2381 6.52802 12.2381 6.66776C12.2381 6.73791 12.2191 6.82539 12.1815 6.93021C12.1436 7.035 12.1112 7.11471 12.085 7.16943C12.0583 7.22366 12.0055 7.31672 11.9257 7.44895C11.8461 7.58142 11.8025 7.65509 11.7949 7.67061C11.219 8.73541 10.5599 9.64862 9.81776 10.4104C9.07515 11.172 8.18515 11.8483 7.14722 12.439C7.13205 12.4468 7.06005 12.4915 6.93134 12.5731C6.8025 12.6548 6.71171 12.7092 6.65854 12.7364C6.60556 12.7636 6.52787 12.7966 6.42562 12.8354C6.32337 12.8742 6.2382 12.8937 6.16994 12.8937C6.03366 12.8937 5.85933 12.7829 5.64719 12.5614C5.43517 12.3399 5.23433 12.0989 5.04508 11.8386C4.85582 11.5781 4.64743 11.3373 4.42024 11.1157C4.19294 10.8942 4.00364 10.7835 3.85216 10.7835C3.74617 10.7835 3.63811 10.8107 3.5283 10.865C3.41825 10.9194 3.28396 11.003 3.12479 11.1157C2.96571 11.2285 2.8711 11.2965 2.84065 11.3199C2.6514 11.4363 2.44877 11.5567 2.23285 11.6812C2.01696 11.8057 1.77633 11.9416 1.51121 12.0894C1.24621 12.237 1.0416 12.3535 0.897676 12.4391C0.367484 12.711 0.0794828 12.9169 0.0341891 13.0568C0.0114626 13.1113 -1.48421e-07 13.1929 -1.43889e-07 13.3017C-1.35134e-07 13.5116 0.037811 13.7856 0.113672 14.1236C0.189414 14.4618 0.268857 14.728 0.35232 14.9223C0.511326 15.3109 0.973418 15.7229 1.73844 16.1582C2.4504 16.5546 3.15508 16.7527 3.85196 16.7527C4.05634 16.7527 4.25518 16.7391 4.44854 16.712C4.64169 16.6848 4.85953 16.6362 5.10199 16.5661C5.34438 16.4962 5.52444 16.4398 5.6417 16.3972C5.75903 16.3545 5.96922 16.2748 6.27235 16.1582C6.57539 16.0418 6.76091 15.9717 6.82909 15.9484C7.57154 15.6764 8.23435 15.3538 8.81771 14.9808C9.78735 14.367 10.7894 13.5294 11.8235 12.4685C12.8576 11.4076 13.6739 10.3796 14.2723 9.3847C14.6359 8.78625 14.9502 8.10596 15.2156 7.34433C15.2382 7.27434 15.3063 7.084 15.4202 6.7732C15.5338 6.46227 15.6114 6.24654 15.6531 6.12615C15.6948 6.00573 15.7498 5.82094 15.8181 5.57245C15.8863 5.32344 15.9337 5.10015 15.9604 4.90197C15.9865 4.70367 16 4.49961 16 4.28988C16 3.57492 15.8068 2.85188 15.4205 2.12128C14.9963 1.33645 14.5948 0.862468 14.2157 0.699247C14.0265 0.61341 13.767 0.532106 13.4374 0.454395C13.1079 0.376438 12.841 0.337726 12.6364 0.337726C12.53 0.33748 12.4506 0.349201 12.3971 0.37264Z" fill="#E5363F"/>
</svg>
