<svg width="30" height="30" viewBox="0 0 30 30" fill="none" xmlns="http://www.w3.org/2000/svg">
<path d="M20.6636 19.5836C22.5814 17.5074 23.7779 14.7273 23.7779 11.6657C23.7779 5.24338 18.5521 0 12.1122 0C5.67234 0 0.446533 5.24338 0.446533 11.6657C0.446533 18.088 5.67234 23.3314 12.1122 23.3314C14.734 23.3314 17.1445 22.4692 19.0975 21.0088L27.772 29.6833C27.9832 29.8944 28.2471 30 28.511 30C28.775 30 29.0565 29.8944 29.25 29.6833C29.6547 29.2786 29.6547 28.61 29.25 28.1877L20.6636 19.5836ZM2.55797 11.6657C2.55797 6.40468 6.83363 2.11144 12.1122 2.11144C17.3732 2.11144 21.6665 6.3871 21.6665 11.6657C21.6665 16.9443 17.3908 21.22 12.1122 21.22C6.83363 21.22 2.55797 16.9267 2.55797 11.6657Z" fill="white"/>
</svg>
