<svg width="19" height="19" viewBox="0 0 19 19" fill="none" xmlns="http://www.w3.org/2000/svg">
<path d="M13.0869 12.4029C14.3015 11.088 15.0593 9.32728 15.0593 7.38827C15.0593 3.32081 11.7496 0 7.67105 0C3.59245 0 0.282776 3.32081 0.282776 7.38827C0.282776 11.4557 3.59245 14.7765 7.67105 14.7765C9.33147 14.7765 10.8581 14.2305 12.0951 13.3056L17.5889 18.7994C17.7226 18.9331 17.8898 19 18.057 19C18.2241 19 18.4024 18.9331 18.525 18.7994C18.7813 18.5431 18.7813 18.1197 18.525 17.8522L13.0869 12.4029ZM1.62002 7.38827C1.62002 4.05629 4.32794 1.33724 7.67105 1.33724C11.003 1.33724 13.7221 4.04516 13.7221 7.38827C13.7221 10.7314 11.0142 13.4393 7.67105 13.4393C4.32794 13.4393 1.62002 10.7203 1.62002 7.38827Z" fill="#E33741"/>
</svg>
